<svg id="beepdMusic" xmlns="http://www.w3.org/2000/svg" viewBox="0 0 470.86 122.31"><defs><style>.cls-1{fill:#fff}</style></defs><path class="cls-1" d="M238 67.34a16.93 16.93 0 0 0-13.71 5.55 19 19 0 0 0-5.51 14 18.82 18.82 0 0 0 5.45 13.11 17.19 17.19 0 0 0 12.77 5.48 17.94 17.94 0 0 0 13.19-5.48 18.58 18.58 0 0 0 5.64-13.22 19 19 0 0 0-5.13-13.44 17.35 17.35 0 0 0-12.7-6ZM296.84 73a17 17 0 0 0-12.74-5.46 17.7 17.7 0 0 0-13.17 5.42 18.43 18.43 0 0 0-5.58 13.27 19.11 19.11 0 0 0 5.12 13.44 17.27 17.27 0 0 0 12.69 6 16.83 16.83 0 0 0 13.68-5.54 19.71 19.71 0 0 0 0-27.14Z" transform="translate(-41.57 -23.84)"/><path class="cls-1" d="M296.52 23.84h-72.78s-24.6-.37-24.6 24.5v18.18c3.8 5.36 7 12.18 7 19.62s-3.17 14.27-7 19.63v15.29s-.29 25.1 24.6 25.1h72.78s25.69-.24 25.69-25.1V48.34s-.8-24.5-25.69-24.5Zm4.24 80.84c-5.16 5.07-11 7.49-18 7.26a23.31 23.31 0 0 1-17-7.65 24.84 24.84 0 0 1-5.33-8.46 25.67 25.67 0 0 1-5.76 8.68 23.24 23.24 0 0 1-17.95 7.26 23.77 23.77 0 0 1-17.86-8.58v23.21h-6.84v-40c0-7 2.75-13 7.82-18.05a24.69 24.69 0 0 1 35.36.38 25.44 25.44 0 0 1 5.41 8.47 25.91 25.91 0 0 1 5.79-8.68c5-5.07 10.38-7.49 17.34-7.26 7.13.28 14.13 3.14 17.17 8.58V45.87h6.84v40.76c.03 6.96-1.83 12.98-6.99 18.05Z" transform="translate(-41.57 -23.84)"/><path class="cls-1" d="M156.27 82.63a18.89 18.89 0 0 1 37.15 0Zm43.53 2.47q0-9-6.89-16.31a24.89 24.89 0 0 0-16.83-8 23.85 23.85 0 0 0-18.75 7.26 25.28 25.28 0 0 0 .13 36.45 23.9 23.9 0 0 0 17.6 7.26 25.05 25.05 0 0 0 23.55-17.06h-6.89q-4.92 10.44-16.4 10.61a18.5 18.5 0 0 1-12.84-4.67 17.93 17.93 0 0 1-6.21-12.06h43.53ZM102 82.63a19.09 19.09 0 0 1 30.77-11 18.68 18.68 0 0 1 6.38 11Zm43.53 2.47q0-9-6.89-16.31a24.89 24.89 0 0 0-16.83-8 23.85 23.85 0 0 0-18.75 7.26 25.26 25.26 0 0 0 .13 36.45q7.65 7.42 17.6 7.26a25.05 25.05 0 0 0 23.58-17.06h-6.89q-4.93 10.44-16.41 10.61a18.53 18.53 0 0 1-12.84-4.67A17.92 17.92 0 0 1 102 88.58h43.53ZM79.9 99.35a17.75 17.75 0 0 1-12.73 6.05 17.21 17.21 0 0 1-13.66-5.58 19.52 19.52 0 0 1 0-27.11 17.08 17.08 0 0 1 12.72-5.45 17.87 17.87 0 0 1 13.2 5.49A18.68 18.68 0 0 1 85 85.9a18.94 18.94 0 0 1-5.1 13.45m4-31.16a23.12 23.12 0 0 0-18-7.22A23.67 23.67 0 0 0 48 69.55V45.09h-6.42v41.2a23.72 23.72 0 0 0 7.48 18.09 24.54 24.54 0 0 0 35.37-.38 24.61 24.61 0 0 0 7-17.59 24.93 24.93 0 0 0-7.59-18.18M419.51 97.38h-3.16V69.89l-11.84 27.49h-2.63l-11.65-27.45v27.45H387V66.25h5l11.15 26.8 11.6-26.8h4.8ZM446 87.27a10.35 10.35 0 0 1-3.13 7.67 10.14 10.14 0 0 1-7.58 3 10 10 0 0 1-7.29-3.12 10.6 10.6 0 0 1-3-7.67V66.21h3v20.4a8.69 8.69 0 0 0 2.11 5.94A6.81 6.81 0 0 0 435.5 95a7.13 7.13 0 0 0 5.29-2.23 7.56 7.56 0 0 0 2.21-5.55v-21h3ZM469.08 88.77a8.63 8.63 0 0 1-2.69 6.49 9.34 9.34 0 0 1-15.95-6.65h3.27a6.05 6.05 0 0 0 1.73 4.39 5.85 5.85 0 0 0 4.28 2 6.11 6.11 0 0 0 4.49-1.78 5.7 5.7 0 0 0 1.8-4.45q-.12-4.33-5.71-6.07l-3.31-1a7.64 7.64 0 0 1-4.08-2.82 8.15 8.15 0 0 1-1.5-4.79 7.53 7.53 0 0 1 2.59-5.92 8.48 8.48 0 0 1 6.11-2.37 8.09 8.09 0 0 1 5.9 2.53 8.24 8.24 0 0 1 2.43 6h-3.27a5.32 5.32 0 0 0-9-4 4.78 4.78 0 0 0-1.63 3.83 4.68 4.68 0 0 0 3.46 4.7l3.8 1.14q7.2 2.31 7.28 8.77ZM476.81 97.38h-3.08V66.25h3.08ZM512.43 89.38A15.77 15.77 0 0 1 498.32 98 15 15 0 0 1 487 93.26a15.86 15.86 0 0 1-4.71-11.49 15.74 15.74 0 0 1 16-15.93 16 16 0 0 1 8.45 2.39 15.83 15.83 0 0 1 5.66 6.18h-3.52a12.95 12.95 0 0 0-19.75-1.84A13.08 13.08 0 0 0 489 91a12.45 12.45 0 0 0 9.28 4 12.62 12.62 0 0 0 6.15-1.65 12.41 12.41 0 0 0 4.48-4Z" transform="translate(-41.57 -23.84)"/><path class="cls-1" d="M315.53 41.96h1v39.62h-1z"/></svg>